# Blender v2.93.5 OBJ File: ''
# www.blender.org
mtllib rotated_cube.mtl
o Cube
v 71.128082 49.147175 -150.084488
v -13.258446 -128.767242 -115.079147
v 167.102173 38.080975 25.034092
v 82.715637 -139.833435 60.039425
v -82.715637 139.833435 -60.039425
v -167.102173 -38.080975 -25.034092
v 13.258446 128.767242 115.079147
v -71.128082 -49.147175 150.084488
vt 0.625000 0.500000
vt 0.875000 0.500000
vt 0.875000 0.750000
vt 0.625000 0.750000
vt 0.375000 0.750000
vt 0.625000 1.000000
vt 0.375000 1.000000
vt 0.375000 0.000000
vt 0.625000 0.000000
vt 0.625000 0.250000
vt 0.375000 0.250000
vt 0.125000 0.500000
vt 0.375000 0.500000
vt 0.125000 0.750000
vn 0.4219 0.8896 -0.1750
vn 0.4799 -0.0553 0.8756
vn -0.7692 0.4534 0.4502
vn -0.4219 -0.8896 0.1750
vn 0.7692 -0.4534 -0.4502
vn -0.4799 0.0553 -0.8756
usemtl Material
s off
f 1/1/1 5/2/1 7/3/1 3/4/1
f 4/5/2 3/4/2 7/6/2 8/7/2
f 8/8/3 7/9/3 5/10/3 6/11/3
f 6/12/4 2/13/4 4/5/4 8/14/4
f 2/13/5 1/1/5 3/4/5 4/5/5
f 6/11/6 5/10/6 1/1/6 2/13/6
