# Blender v2.93.5 OBJ File: 'cube.blend'
# www.blender.org
mtllib big_cube.mtl
o Cube
v 35.965317 59.383713 -51.769398
v -41.053841 0.488388 -76.251846
v 83.537918 -19.229881 -12.313725
v 6.518764 -78.125206 -36.796169
v -6.518764 78.125206 36.796169
v -83.537918 19.229881 12.313725
v 41.053841 -0.488388 76.251846
v -35.965317 -59.383713 51.769398
vt 0.875000 0.500000
vt 0.625000 0.750000
vt 0.625000 0.500000
vt 0.375000 1.000000
vt 0.375000 0.750000
vt 0.625000 0.000000
vt 0.375000 0.250000
vt 0.375000 0.000000
vt 0.375000 0.500000
vt 0.125000 0.750000
vt 0.125000 0.500000
vt 0.625000 0.250000
vt 0.875000 0.750000
vt 0.625000 1.000000
vn 0.7702 0.5890 0.2448
vn 0.4757 -0.7861 0.3946
vn -0.4248 0.1874 0.8857
vn -0.7702 -0.5890 -0.2448
vn 0.4248 -0.1874 -0.8857
vn -0.4757 0.7861 -0.3946
usemtl Material
s off
f 5/1/1 3/2/1 1/3/1
f 3/2/2 8/4/2 4/5/2
f 7/6/3 6/7/3 8/8/3
f 2/9/4 8/10/4 6/11/4
f 1/3/5 4/5/5 2/9/5
f 5/12/6 2/9/6 6/7/6
f 5/1/1 7/13/1 3/2/1
f 3/2/2 7/14/2 8/4/2
f 7/6/3 5/12/3 6/7/3
f 2/9/4 4/5/4 8/10/4
f 1/3/5 3/2/5 4/5/5
f 5/12/6 1/3/6 2/9/6
